{"title":"Caught in the Crossfire (2010) 720p BrRip x264 [Dual Audio] [Hin","uid":9489644,"size":882366069,"categoryP":"video","categoryS":"hd___movies","magnet":"?xt=urn:btih:18e5070c80097c4b8b956ebf2dfded9c9ea2a0d6&amp;dn=Caught+in+the+Crossfire+%282010%29+720p+BrRip+x264+%5BDual+Audio%5D+%5BHin&amp;tr=udp%3A%2F%2Ftracker.openbittorrent.com%3A80&amp;tr=udp%3A%2F%2Fopen.demonii.com%3A1337&amp;tr=udp%3A%2F%2Ftracker.coppersurfer.tk%3A6969&amp;tr=udp%3A%2F%2Fexodus.desync.com%3A6969","seeders":0,"leechers":3,"uploader":"lokioddin","files":-1,"time":1389972486,"description":"Caught in the Crossfire (2010) 720p BrRip x264 [Dual Audio] [Hindi-English] ~ Lokioddin (PimpRG)\n &lt;a href=&quot;\nhttp://i1.someimage.com/cAHGTLW.jpg&quot; rel=&quot;nofollow&quot; target=&quot;_NEW&quot;&gt;\nhttp://i1.someimage.com/cAHGTLW.jpg&lt;/a&gt;\n &lt;a href=&quot;\nhttp://i1.someimage.com/B8CwxFt.png&quot; rel=&quot;nofollow&quot; target=&quot;_NEW&quot;&gt;\nhttp://i1.someimage.com/B8CwxFt.png&lt;/a&gt;\n &lt;a href=&quot;\nhttp://img208.imageshack.us/img208/2125/2y0h.png&quot; rel=&quot;nofollow&quot; target=&quot;_NEW&quot;&gt;\nhttp://img208.imageshack.us/img208/2125/2y0h.png&lt;/a&gt;\n\nFormat                                   : Matroska\nFormat version                           : Version 2\nFile size                                : 827 MiB\nDuration                                 : 1h 24mn\nOverall bit rate mode                    : Variable\nOverall bit rate                         : 1 366 Kbps\n &lt;a href=&quot;\nhttp://img809.imageshack.us/img809/9176/zqkq.png&quot; rel=&quot;nofollow&quot; target=&quot;_NEW&quot;&gt;\nhttp://img809.imageshack.us/img809/9176/zqkq.png&lt;/a&gt;\n\nDuration                                 : 1h 24mn\nBit rate mode                            : Variable\nBit rate                                 : 1 200 Kbps\nMaximum bit rate                         : 25.0 Mbps\nWidth                                    : 1 280 pixels\nHeight                                   : 692 pixels\nDisplay aspect ratio                     : 1.85:1\nFrame rate mode                          : Constant\nFrame rate                               : 25.000 fps\n &lt;a href=&quot;\nhttp://img89.imageshack.us/img89/4154/5vbf.png&quot; rel=&quot;nofollow&quot; target=&quot;_NEW&quot;&gt;\nhttp://img89.imageshack.us/img89/4154/5vbf.png&lt;/a&gt;\n\nAudio #1\n\nDuration                                 : 1h 24mn\nBit rate mode                            : Constant\nBit rate                                 : 96.0 Kbps\nChannel(s)                               : 2 channels\nSampling rate                            : 44.1 KHz\nCompression mode                         : Lossy\nStream size                              : 58.1 MiB (7%)\nTitle                                    : lokioddin\nWriting library                          : LAME3.98.2\nLanguage                                 : Hindi\n\nAudio #2\n\nDuration                                 : 1h 24mn\nBit rate mode                            : Variable\nBit rate                                 : 96.0 Kbps\nChannel(s)                               : 2 channels\nSampling rate                            : 48.0 KHz\nCompression mode                         : Lossy\nStream size                              : 58.1 MiB (7%)\nLanguage                                 : English\nTitle                                    : lokioddin\n &lt;a href=&quot;\nhttp://img39.imageshack.us/img39/6429/gnwt.png&quot; rel=&quot;nofollow&quot; target=&quot;_NEW&quot;&gt;\nhttp://img39.imageshack.us/img39/6429/gnwt.png&lt;/a&gt;\n &lt;a href=&quot;\nhttp://i1.someimage.com/NjdDAm8.png&quot; rel=&quot;nofollow&quot; target=&quot;_NEW&quot;&gt;\nhttp://i1.someimage.com/NjdDAm8.png&lt;/a&gt;\n &lt;a href=&quot;\nhttp://i1.someimage.com/2jNSsOK.png&quot; rel=&quot;nofollow&quot; target=&quot;_NEW&quot;&gt;\nhttp://i1.someimage.com/2jNSsOK.png&lt;/a&gt;\n &lt;a href=&quot;\nhttp://i1.someimage.com/PHUo40c.png&quot; rel=&quot;nofollow&quot; target=&quot;_NEW&quot;&gt;\nhttp://i1.someimage.com/PHUo40c.png&lt;/a&gt;\n &lt;a href=&quot;\nhttp://i1.someimage.com/mZYOYqb.png&quot; rel=&quot;nofollow&quot; target=&quot;_NEW&quot;&gt;\nhttp://i1.someimage.com/mZYOYqb.png&lt;/a&gt;\n &lt;a href=&quot;\nhttp://i1.someimage.com/mWuZ5xt.png&quot; rel=&quot;nofollow&quot; target=&quot;_NEW&quot;&gt;\nhttp://i1.someimage.com/mWuZ5xt.png&lt;/a&gt;\n &lt;a href=&quot;\nhttp://i1.someimage.com/wKsoU56.png&quot; rel=&quot;nofollow&quot; target=&quot;_NEW&quot;&gt;\nhttp://i1.someimage.com/wKsoU56.png&lt;/a&gt;\n &lt;a href=&quot;\nhttp://i1.someimage.com/cKGShq7.png&quot; rel=&quot;nofollow&quot; target=&quot;_NEW&quot;&gt;\nhttp://i1.someimage.com/cKGShq7.png&lt;/a&gt;\n &lt;a href=&quot;\nhttp://i1.someimage.com/bhao6Y3.png&quot; rel=&quot;nofollow&quot; target=&quot;_NEW&quot;&gt;\nhttp://i1.someimage.com/bhao6Y3.png&lt;/a&gt;\n &lt;a href=&quot;\nhttp://i1.someimage.com/Uf462oW.png&quot; rel=&quot;nofollow&quot; target=&quot;_NEW&quot;&gt;\nhttp://i1.someimage.com/Uf462oW.png&lt;/a&gt;\n\n[b]Lokioddin[/b] \n\n\n\n\n[img]http://img9.imageshack.us/img9/9342/m34.gif[/img]\n\n[img]http://img443.imageshack.us/img443/3206/esk.gif[/img]\n\n[img]http://img844.imageshack.us/img844/9744/pbq.gif[/img]\n\n[img]http://img35.imageshack.us/img35/975/wc7e.jpg[/img]\n","torrent":{"xt":"urn:btih:18e5070c80097c4b8b956ebf2dfded9c9ea2a0d6","amp;dn":"Caught+in+the+Crossfire+%282010%29+720p+BrRip+x264+%5BDual+Audio%5D+%5BHin","amp;tr":["udp%3A%2F%2Ftracker.openbittorrent.com%3A80","udp%3A%2F%2Fopen.demonii.com%3A1337","udp%3A%2F%2Ftracker.coppersurfer.tk%3A6969","udp%3A%2F%2Fexodus.desync.com%3A6969"],"infoHash":"18e5070c80097c4b8b956ebf2dfded9c9ea2a0d6","infoHashBuffer":{"type":"Buffer","data":[24,229,7,12,128,9,124,75,139,149,110,191,45,253,237,156,158,162,160,214]},"announce":[],"urlList":[]}}